<?xml version="1.0" encoding="UTF-8"?>
<svg width="552.48" height="226.39" version="1.1" viewBox="0 0 146.18 59.901" xmlns="http://www.w3.org/2000/svg"><g transform="matrix(3.0169 0 0 3.0169 -99.412 -462.64)"><g stroke-width=".40656" aria-label="#ERGO"><path d="m34.33 165.07h1.9027l2.0003-11.351h-1.9027l-0.55292 3.1549h-2.0328v1.7888h1.7075l-0.24394 1.4636h-2.0816v1.7888h1.7563zm3.1549 0h1.9027l0.55292-3.1549h2.0328v-1.7888h-1.7075l0.24393-1.4636h2.0816v-1.7888h-1.7563l0.55292-3.1549h-1.9027z" fill="#5f901d"/><g fill="#161616"><path d="m51.898 165.07v-2.0003h-4.8136v-2.7483h4.651v-2.0003h-4.651v-2.602h4.8136v-2.0003h-7.253v11.351z"/><path d="m56.001 160.86h1.1221l1.9027 4.2119h2.667l-2.2279-4.5372c1.2685-0.35777 2.0003-1.61 2.0003-3.2037 0-2.1954-1.2522-3.6102-3.4801-3.6102h-4.3908v11.351h2.4068zm0-1.8864v-3.285h1.3986c1.1384 0 1.5287 0.40656 1.5287 1.3986v0.48787c0 0.992-0.3903 1.3986-1.5287 1.3986z"/><path d="m68.823 165.07h2.1791v-6.0658h-4.1144v1.7238h1.9352v0.82938c0 1.0083-0.55292 1.7401-1.6425 1.7401-1.4148 0-1.8864-1.2034-1.8864-3.041v-1.8539c0-1.8214 0.45534-2.911 1.6913-2.911 1.1221 0 1.4961 0.89443 1.7401 1.8539l2.2767-0.55291c-0.45534-1.9515-1.6262-3.2687-3.968-3.2687-2.9435 0-4.3258 2.1141-4.3258 5.9683 0 3.6102 1.2034 5.7731 3.4313 5.7731 1.3986 0 2.1629-0.8619 2.5369-1.8051h0.14636z"/><path d="m76.791 165.27c3.0411 0 4.4396-2.1629 4.4396-5.8707 0-3.7078-1.3986-5.8707-4.4396-5.8707-3.041 0-4.4396 2.1629-4.4396 5.8707 0 3.7078 1.3986 5.8707 4.4396 5.8707zm0-1.9677c-1.3823 0-1.8376-1.0896-1.8376-2.911v-1.984c0-1.8214 0.45534-2.911 1.8376-2.911 1.3823 0 1.8376 1.0896 1.8376 2.911v1.9677c0 1.8376-0.45534 2.9272-1.8376 2.9272z"/></g></g><g fill="#4a7411" stroke-width=".17823" aria-label="irc server"><path d="m42.203 168.4c0.24239 0 0.34932-0.12833 0.34932-0.32081v-0.0927c0-0.19249-0.10694-0.32081-0.34932-0.32081s-0.34933 0.12832-0.34933 0.32081v0.0927c0 0.19248 0.10694 0.32081 0.34933 0.32081zm-0.28516 4.5412h0.57033v-3.6786h-0.57033z"/><path d="m44.271 172.94v-2.4952c0-0.34933 0.37071-0.61311 0.98382-0.61311h0.33507v-0.57032h-0.221c-0.59884 0-0.93391 0.32793-1.0622 0.67726h-0.03565v-0.67726h-0.57033v3.6786z"/><path d="m47.65 173.03c0.69865 0 1.1763-0.3422 1.4116-0.86975l-0.41349-0.27804c-0.19961 0.42062-0.53468 0.64162-0.99807 0.64162-0.67726 0-1.0266-0.46339-1.0266-1.105v-0.62736c0-0.64162 0.34932-1.105 1.0266-1.105 0.44913 0 0.76281 0.221 0.89826 0.59885l0.47765-0.24239c-0.21387-0.50617-0.64875-0.86262-1.3759-0.86262-1.0337 0-1.6397 0.74855-1.6397 1.9248s0.60597 1.9249 1.6397 1.9249z"/><path d="m52.655 173.03c0.84123 0 1.3617-0.43488 1.3617-1.1478 0-0.55607-0.31368-0.91252-1.1264-1.0337l-0.28516-0.0428c-0.45626-0.0713-0.70578-0.21387-0.70578-0.57033 0-0.34932 0.24952-0.57032 0.72004-0.57032 0.47052 0 0.7842 0.221 0.94817 0.44913l0.37784-0.3422c-0.29942-0.37071-0.69152-0.59171-1.2832-0.59171-0.74855 0-1.3118 0.35645-1.3118 1.0836 0 0.68439 0.50616 0.96243 1.1834 1.0622l0.29229 0.0428c0.48478 0.0713 0.64162 0.29229 0.64162 0.57745 0 0.37785-0.28516 0.59885-0.76994 0.59885-0.46339 0-0.80559-0.20675-1.0908-0.5632l-0.40636 0.32794c0.32794 0.43487 0.77707 0.72004 1.4543 0.72004z"/><path d="m56.405 173.03c0.69152 0 1.2191-0.3422 1.4543-0.84124l-0.40636-0.29229c-0.19248 0.40636-0.54894 0.63449-1.0123 0.63449-0.68439 0-1.0908-0.47765-1.0908-1.1121v-0.1711h2.6449v-0.2709c0-1.0408-0.60597-1.7965-1.5898-1.7965-0.99807 0-1.6539 0.75568-1.6539 1.9248s0.65588 1.9249 1.6539 1.9249zm0-3.3721c0.58459 0 0.97669 0.43487 0.97669 1.0836v0.0784h-2.0318v-0.0499c0-0.64161 0.43487-1.1121 1.0551-1.1121z"/><path d="m59.506 172.94v-2.4952c0-0.34933 0.37071-0.61311 0.98381-0.61311h0.33507v-0.57032h-0.221c-0.59884 0-0.93391 0.32793-1.0622 0.67726h-0.03565v-0.67726h-0.57033v3.6786z"/><path d="m63.099 172.94 1.2975-3.6786h-0.54894l-0.65588 1.825-0.39923 1.2547h-0.03564l-0.39923-1.2547-0.64162-1.825h-0.57033l1.2904 3.6786z"/><path d="m66.457 173.03c0.69152 0 1.2191-0.3422 1.4543-0.84124l-0.40636-0.29229c-0.19249 0.40636-0.54894 0.63449-1.0123 0.63449-0.68439 0-1.0908-0.47765-1.0908-1.1121v-0.1711h2.6449v-0.2709c0-1.0408-0.60597-1.7965-1.5898-1.7965-0.99807 0-1.6539 0.75568-1.6539 1.9248s0.65588 1.9249 1.6539 1.9249zm0-3.3721c0.58458 0 0.97668 0.43487 0.97668 1.0836v0.0784h-2.0318v-0.0499c0-0.64161 0.43488-1.1121 1.0551-1.1121z"/><path d="m69.558 172.94v-2.4952c0-0.34933 0.37071-0.61311 0.98382-0.61311h0.33507v-0.57032h-0.221c-0.59884 0-0.93391 0.32793-1.0622 0.67726h-0.03565v-0.67726h-0.57033v3.6786z"/></g></g></svg>
