<svg id="Layer_1" data-name="Layer 1" xmlns="http://www.w3.org/2000/svg" viewBox="0 0 900 209"><defs><style>.cls-1{fill:#0f0f0f;}.cls-2{fill:#6a83c1;}.cls-3{fill:#9eb6de;}</style></defs><title>logo</title><path class="cls-1" d="M96.63,94v21.95H73.8V137H62.39v39.89H73.8v21.95H96.63V220H51V198.87H28.13V178.52H16.72V135.44H28.13V115.91H51V94H96.63Z" transform="translate(-12 -11)"/><path class="cls-1" d="M621.85,94v21.95H599V137H587.6v39.89H599v21.95h22.84V220H576.18V198.87H553.34V178.52H541.93V135.44h11.41V115.91h22.84V94h45.67Z" transform="translate(-12 -11)"/><path class="cls-1" d="M713.19,11V52.48h11.43V94H736v41.48h11.43V54.07H736V32.95h22.84V52.48h22.84V95.56H770.29v83H758.86V220H736V178.52H724.62v-83H713.19V198.87H667.52V135.44h11.43V94h11.41V52.48h11.43V11h11.41Z" transform="translate(-12 -11)"/><path class="cls-1" d="M873,94v21.95H850.2V137H838.79v39.89H850.2v21.95H873V220H827.37V198.87H804.53V178.52H793.12V135.44h11.41V115.91h22.84V94H873Z" transform="translate(-12 -11)"/><path class="cls-2" d="M154.07,204.11a2.45,2.45,0,0,1,1.78.73,2.51,2.51,0,0,1,0,3.57,2.47,2.47,0,0,1-1.77.72H153.4a2.45,2.45,0,0,1-1.78-.73,2.51,2.51,0,0,1,0-3.57,2.48,2.48,0,0,1,1.78-.72h0.67Z" transform="translate(-12 -11)"/><path class="cls-3" d="M775,192.06v9.41h-9.42v-9.41H775Z" transform="translate(-12 -11)"/><path class="cls-3" d="M135.6,192.06v9.41h-9.42v-9.41h9.42Z" transform="translate(-12 -11)"/><path class="cls-3" d="M912,192.06v9.41h-9.42v-9.41H912Z" transform="translate(-12 -11)"/><path class="cls-1" d="M895.87,115.91v19.54H907.3v43.07H895.87v20.35H873V176.93h11.43V137H873V115.91h22.84Z" transform="translate(-12 -11)"/><path class="cls-1" d="M644.68,115.91v19.54h11.43v43.07H644.68v20.35H621.85V176.93h11.43V137H621.85V115.91h22.84Z" transform="translate(-12 -11)"/><path class="cls-1" d="M462,32.95V52.48h22.84V74.43H462V54.07H439.16V157.39H462v19.54h34.26V137H484.84V115.91H462V94h45.67v21.95h22.84v62.61H507.67v20.35H416.33V178.52H404.92V137H393.49V115.91h22.84V95.56H404.92V52.48h11.41V32.95H462Z" transform="translate(-12 -11)"/><path class="cls-1" d="M210.81,32.95V52.48h22.84V95.56H210.81v20.35H165.14v19.54H188v63.43H165.14V178.52H153.73V94h11.41V74.43H188V94h22.84V54.07H165.14V74.43H142.31V32.95h68.51Z" transform="translate(-12 -11)"/><path class="cls-1" d="M119.47,115.91v19.54H130.9v43.07H119.47v20.35H96.63V176.93h11.43V137H96.63V115.91h22.84Z" transform="translate(-12 -11)"/><path class="cls-1" d="M233.65,115.91v19.54h11.43v41.48h11.41v21.95H233.65V178.52H210.81V115.91h22.84Z" transform="translate(-12 -11)"/><path class="cls-1" d="M347.82,32.95V52.48h22.84v83h11.43v43.07H370.66v20.35H347.82V176.93h11.43V137H347.82V115.91H302.15v83H279.32V178.52H267.91V137H256.48V115.91h22.84V95.56H267.91V52.48h11.41V32.95h68.51ZM325,54.07H302.15V94h45.67V74.43H325V54.07Z" transform="translate(-12 -11)"/><path class="cls-2" d="M408.56,194a1.9,1.9,0,0,1,0,3.81,1.85,1.85,0,0,1-1.36-.56,1.9,1.9,0,0,1,0-2.69A1.84,1.84,0,0,1,408.56,194Z" transform="translate(-12 -11)"/><path class="cls-2" d="M85.56,162.63a2.45,2.45,0,0,1,1.78.73,2.51,2.51,0,0,1,0,3.57,2.47,2.47,0,0,1-1.77.72H84.89a2.45,2.45,0,0,1-1.78-.73,2.51,2.51,0,0,1,0-3.57,2.47,2.47,0,0,1,1.77-.73h0.67Z" transform="translate(-12 -11)"/><path class="cls-2" d="M862,162.63a2.45,2.45,0,0,1,1.78.73,2.51,2.51,0,0,1,0,3.57,2.47,2.47,0,0,1-1.77.72h-0.67a2.45,2.45,0,0,1-1.78-.73,2.51,2.51,0,0,1,0-3.57,2.47,2.47,0,0,1,1.78-.73H862Z" transform="translate(-12 -11)"/><path class="cls-3" d="M341.12,150.58V160H331.7v-9.41h9.42Z" transform="translate(-12 -11)"/><path class="cls-3" d="M478.13,150.58V160h-9.42v-9.41h9.42Z" transform="translate(-12 -11)"/><path class="cls-3" d="M199.38,150.69a4.6,4.6,0,1,1-3.24,1.35A4.45,4.45,0,0,1,199.38,150.69Z" transform="translate(-12 -11)"/><path class="cls-3" d="M660.81,109.09v9.41h-9.42v-9.41h9.42Z" transform="translate(-12 -11)"/><path class="cls-3" d="M523.8,67.61V77h-9.42V67.61h9.42Z" transform="translate(-12 -11)"/><path class="cls-3" d="M21.42,67.61V77H12V67.61h9.42Z" transform="translate(-12 -11)"/><path class="cls-3" d="M546.63,67.61V77h-9.42V67.61h9.42Z" transform="translate(-12 -11)"/><path class="cls-3" d="M797.82,67.61V77H788.4V67.61h9.42Z" transform="translate(-12 -11)"/><path class="cls-3" d="M678.93,67.72a4.6,4.6,0,1,1-3.24,1.35,4.45,4.45,0,0,1,3.24-1.35h0Z" transform="translate(-12 -11)"/><path class="cls-2" d="M248.72,69.54l0.72,0.14,0.61,0.42a1.84,1.84,0,0,1,.56,1.36,1.9,1.9,0,0,1-1.9,1.89,1.84,1.84,0,0,1-1.36-.56,1.82,1.82,0,0,1-.56-1.34A1.9,1.9,0,0,1,248.72,69.54Z" transform="translate(-12 -11)"/><path class="cls-3" d="M496.24,26.24a4.6,4.6,0,1,1,0,9.19A4.59,4.59,0,0,1,493,27.59,4.42,4.42,0,0,1,496.24,26.24Z" transform="translate(-12 -11)"/><path class="cls-2" d="M362.89,28.06a1.82,1.82,0,0,1,1.34.56,1.85,1.85,0,0,1,.56,1.36,1.9,1.9,0,0,1-1.9,1.89,1.85,1.85,0,0,1-1.36-.56A1.82,1.82,0,0,1,361,30,1.9,1.9,0,0,1,362.89,28.06Z" transform="translate(-12 -11)"/></svg>