<?xml version="1.0" encoding="UTF-8"?>
<!DOCTYPE svg PUBLIC "-//W3C//DTD SVG 1.1//EN" "http://www.w3.org/Graphics/SVG/1.1/DTD/svg11.dtd">
<svg version="1.1" xmlns="http://www.w3.org/2000/svg" xmlns:xlink="http://www.w3.org/1999/xlink" x="0" y="0" width="800" height="200" viewBox="0, 0, 800, 200">
  <g id="Layer_1">
    <g>
      <path d="M86.334,81.496 L86.334,100.351 L66.729,100.351 L66.729,118.504 L56.935,118.504 L56.935,152.773 L66.729,152.773 L66.729,171.627 L86.334,171.627 L86.334,189.78 L47.125,189.78 L47.125,171.627 L27.521,171.627 L27.521,154.142 L17.727,154.142 L17.727,117.135 L27.521,117.135 L27.521,100.351 L47.125,100.351 L47.125,81.496 L86.334,81.496 z" fill="#000000"/>
      <path d="M537.229,81.496 L537.229,100.351 L517.625,100.351 L517.625,118.504 L507.831,118.504 L507.831,152.773 L517.625,152.773 L517.625,171.627 L537.229,171.627 L537.229,189.78 L498.021,189.78 L498.021,171.627 L478.417,171.627 L478.417,154.142 L468.623,154.142 L468.623,117.135 L478.417,117.135 L478.417,100.351 L498.021,100.351 L498.021,81.496 L537.229,81.496 z" fill="#000000"/>
      <path d="M615.646,10.22 L615.646,45.858 L625.456,45.858 L625.456,81.496 L635.25,81.496 L635.25,117.135 L645.06,117.135 L645.06,47.227 L635.25,47.227 L635.25,29.075 L654.854,29.075 L654.854,45.858 L674.458,45.858 L674.458,82.865 L664.664,82.865 L664.664,154.142 L654.854,154.142 L654.854,189.78 L635.25,189.78 L635.25,154.142 L625.456,154.142 L625.456,82.865 L615.646,82.865 L615.646,171.627 L576.437,171.627 L576.437,117.135 L586.247,117.135 L586.247,81.496 L596.041,81.496 L596.041,45.858 L605.852,45.858 L605.852,10.22 L615.646,10.22 z" fill="#000000"/>
      <path d="M752.875,81.496 L752.875,100.351 L733.271,100.351 L733.271,118.504 L723.477,118.504 L723.477,152.773 L733.271,152.773 L733.271,171.627 L752.875,171.627 L752.875,189.78 L713.667,189.78 L713.667,171.627 L694.063,171.627 L694.063,154.142 L684.268,154.142 L684.268,117.135 L694.063,117.135 L694.063,100.351 L713.667,100.351 L713.667,81.496 L752.875,81.496 z" fill="#000000"/>
      <path d="M135.639,176.125 Q136.532,176.126 137.17,176.756 Q137.808,177.386 137.808,178.279 Q137.808,179.204 137.162,179.826 Q136.516,180.448 135.639,180.448 L135.065,180.448 Q134.172,180.448 133.534,179.818 Q132.895,179.188 132.895,178.295 Q132.895,177.37 133.541,176.748 Q134.188,176.126 135.065,176.126 L135.639,176.125 z" fill="#000000"/>
      <path d="M668.7,165.773 L668.7,173.86 L660.613,173.86 L660.613,165.773 L668.7,165.773 z" fill="#000000"/>
      <path d="M119.783,165.773 L119.783,173.86 L111.696,173.86 L111.696,165.773 L119.783,165.773 z" fill="#000000"/>
      <path d="M786.325,165.773 L786.325,173.86 L778.237,173.86 L778.237,165.773 L786.325,165.773 z" fill="#000000"/>
      <path d="M772.479,100.351 L772.479,117.135 L782.289,117.135 L782.289,154.142 L772.479,154.142 L772.479,171.627 L752.875,171.627 L752.875,152.773 L762.685,152.773 L762.685,118.504 L752.875,118.504 L752.875,100.351 L772.479,100.351 z" fill="#000000"/>
      <path d="M556.833,100.351 L556.833,117.135 L566.643,117.135 L566.643,154.142 L556.833,154.142 L556.833,171.627 L537.229,171.627 L537.229,152.773 L547.039,152.773 L547.039,118.504 L537.229,118.504 L537.229,100.351 L556.833,100.351 z" fill="#000000"/>
      <path d="M400,29.075 L400,45.858 L419.604,45.858 L419.604,64.713 L400,64.713 L400,47.227 L380.396,47.227 L380.396,135.989 L400,135.989 L400,152.773 L429.414,152.773 L429.414,118.504 L419.604,118.504 L419.604,100.351 L400,100.351 L400,81.496 L439.208,81.496 L439.208,100.351 L458.813,100.351 L458.813,154.142 L439.208,154.142 L439.208,171.627 L360.792,171.627 L360.792,154.142 L350.998,154.142 L350.998,118.504 L341.187,118.504 L341.187,100.351 L360.792,100.351 L360.792,82.865 L350.998,82.865 L350.998,45.858 L360.792,45.858 L360.792,29.075 L400,29.075 z" fill="#000000"/>
      <path d="M184.354,29.075 L184.354,45.858 L203.958,45.858 L203.958,82.865 L184.354,82.865 L184.354,100.351 L145.146,100.351 L145.146,117.135 L164.75,117.135 L164.75,171.627 L145.146,171.627 L145.146,154.142 L135.352,154.142 L135.352,81.496 L145.146,81.496 L145.146,64.713 L164.75,64.713 L164.75,81.496 L184.354,81.496 L184.354,47.227 L145.146,47.227 L145.146,64.713 L125.542,64.713 L125.542,29.075 L184.354,29.075 z" fill="#000000"/>
      <path d="M105.938,100.351 L105.938,117.135 L115.748,117.135 L115.748,154.142 L105.938,154.142 L105.938,171.627 L86.334,171.627 L86.334,152.773 L96.144,152.773 L96.144,118.504 L86.334,118.504 L86.334,100.351 L105.938,100.351 z" fill="#000000"/>
      <path d="M203.958,100.351 L203.958,117.135 L213.768,117.135 L213.768,152.773 L223.563,152.773 L223.563,171.627 L203.958,171.627 L203.958,154.142 L184.354,154.142 L184.354,100.351 L203.958,100.351 z" fill="#000000"/>
      <path d="M301.979,29.075 L301.979,45.858 L321.583,45.858 L321.583,117.135 L331.393,117.135 L331.393,154.142 L321.583,154.142 L321.583,171.627 L301.979,171.627 L301.979,152.773 L311.789,152.773 L311.789,118.504 L301.979,118.504 L301.979,100.351 L262.771,100.351 L262.771,171.627 L243.167,171.627 L243.167,154.142 L233.373,154.142 L233.373,118.504 L223.563,118.504 L223.563,100.351 L243.167,100.351 L243.167,82.865 L233.373,82.865 L233.373,45.858 L243.167,45.858 L243.167,29.075 L301.979,29.075 z M282.375,47.227 L262.771,47.227 L262.771,81.496 L301.979,81.496 L301.979,64.713 L282.375,64.713 L282.375,47.227 z" fill="#000000"/>
      <path d="M354.124,167.432 Q354.794,167.432 355.273,167.911 Q355.751,168.389 355.751,169.075 Q355.751,169.745 355.273,170.224 Q354.794,170.702 354.124,170.702 Q353.438,170.702 352.96,170.224 Q352.481,169.745 352.481,169.075 Q352.481,168.389 352.96,167.911 Q353.438,167.432 354.124,167.432 z" fill="#000000"/>
      <path d="M76.826,140.487 Q77.72,140.487 78.358,141.118 Q78.996,141.748 78.996,142.641 Q78.996,143.566 78.35,144.188 Q77.704,144.81 76.827,144.81 L76.252,144.81 Q75.359,144.81 74.721,144.18 Q74.083,143.55 74.083,142.657 Q74.083,141.732 74.729,141.11 Q75.375,140.487 76.252,140.487 L76.826,140.487 z" fill="#000000"/>
      <path d="M743.368,140.487 Q744.261,140.487 744.899,141.118 Q745.537,141.748 745.537,142.641 Q745.537,143.566 744.891,144.188 Q744.245,144.81 743.368,144.81 L742.793,144.81 Q741.901,144.81 741.262,144.18 Q740.624,143.55 740.624,142.657 Q740.624,141.732 741.27,141.11 Q741.916,140.487 742.794,140.487 L743.368,140.487 z" fill="#000000"/>
      <path d="M296.221,130.135 L296.221,138.222 L288.134,138.222 L288.134,130.135 L296.221,130.135 z" fill="#000000"/>
      <path d="M413.846,130.135 L413.846,138.222 L405.758,138.222 L405.758,130.135 L413.846,130.135 z" fill="#000000"/>
      <path d="M174.544,130.231 Q176.187,130.231 177.344,131.387 Q178.5,132.544 178.5,134.171 Q178.5,135.814 177.336,136.97 Q176.171,138.127 174.544,138.127 Q172.917,138.127 171.761,136.97 Q170.604,135.814 170.604,134.171 Q170.604,132.544 171.761,131.387 Q172.917,130.231 174.544,130.231 z" fill="#000000"/>
      <path d="M570.679,94.497 L570.679,102.584 L562.592,102.584 L562.592,94.497 L570.679,94.497 z" fill="#000000"/>
      <path d="M453.054,58.859 L453.054,66.946 L444.967,66.946 L444.967,58.859 L453.054,58.859 z" fill="#000000"/>
      <path d="M21.763,58.859 L21.763,66.946 L13.675,66.946 L13.675,58.859 L21.763,58.859 z" fill="#000000"/>
      <path d="M472.658,58.859 L472.658,66.946 L464.571,66.946 L464.571,58.859 L472.658,58.859 z" fill="#000000"/>
      <path d="M688.304,58.859 L688.304,66.946 L680.217,66.946 L680.217,58.859 L688.304,58.859 z" fill="#000000"/>
      <path d="M586.232,58.954 Q587.875,58.955 589.031,60.111 Q590.188,61.267 590.188,62.895 Q590.188,64.537 589.023,65.694 Q587.859,66.85 586.232,66.85 Q584.605,66.85 583.448,65.694 Q582.292,64.537 582.292,62.895 Q582.292,61.267 583.448,60.111 Q584.605,58.955 586.232,58.955 z" fill="#000000"/>
      <path d="M216.895,60.518 L217.517,60.637 L218.043,60.996 Q218.522,61.475 218.522,62.161 Q218.522,62.831 218.044,63.309 Q217.565,63.788 216.895,63.788 Q216.209,63.788 215.731,63.309 Q215.252,62.831 215.252,62.161 Q215.252,61.475 215.731,60.996 C216.439,60.517 216.051,60.677 216.895,60.518 z" fill="#000000"/>
      <path d="M429.398,23.316 Q431.041,23.316 432.198,24.473 Q433.354,25.629 433.354,27.256 Q433.354,28.899 432.19,30.056 Q431.025,31.212 429.398,31.212 Q427.771,31.212 426.615,30.056 Q425.458,28.899 425.458,27.256 Q425.458,25.629 426.615,24.473 Q427.771,23.316 429.398,23.316 z" fill="#000000"/>
      <path d="M314.916,24.88 Q315.586,24.88 316.064,25.358 Q316.543,25.837 316.543,26.523 Q316.543,27.193 316.064,27.671 Q315.586,28.15 314.916,28.15 Q314.23,28.15 313.751,27.671 Q313.273,27.193 313.273,26.523 Q313.273,25.837 313.751,25.358 Q314.23,24.88 314.916,24.88 z" fill="#000000"/>
    </g>
  </g>
</svg>
